<?xml version="1.0" encoding="UTF-8"?>
<svg xmlns="http://www.w3.org/2000/svg" xmlns:xlink="http://www.w3.org/1999/xlink" version="1.1" id="Capa_1" x="0px" y="0px" viewBox="0 0 512 512" style="enable-background:new 0 0 512 512;" xml:space="preserve" width="512" height="512">
<g id="Mail">
	<path style="fill:none;stroke-width:40;stroke-linecap:round;stroke-linejoin:round;stroke-miterlimit:10;" d="&#10;&#9;&#9;M412,436H100c-44.183,0-80-35.817-80-80V156c0-44.183,35.817-80,80-80h312c44.183,0,80,35.817,80,80v200&#10;&#9;&#9;C492,400.183,456.183,436,412,436z"/>
	<path style="fill:none;stroke-width:40;stroke-linecap:round;stroke-linejoin:round;stroke-miterlimit:10;" d="&#10;&#9;&#9;M100,156l127.716,131.716c15.621,15.621,40.948,15.621,56.569,0L412,156"/>
	
		<line style="fill:none;stroke-width:40;stroke-linecap:round;stroke-linejoin:round;stroke-miterlimit:10;" x1="100" y1="356" x2="196" y2="256"/>
	
		<line style="fill:none;stroke-width:40;stroke-linecap:round;stroke-linejoin:round;stroke-miterlimit:10;" x1="316" y1="256" x2="412" y2="356"/>
</g>















</svg>
