<?xml version="1.0" encoding="UTF-8" standalone="no"?>
<!-- Created with Inkscape (http://www.inkscape.org/) -->

<svg
   version="1.1"
   id="svg1035"
   xml:space="preserve"
   width="682.66669"
   height="682.66669"
   viewBox="0 0 682.66669 682.66669"
   xmlns="http://www.w3.org/2000/svg"
   xmlns:svg="http://www.w3.org/2000/svg"><defs
     id="defs1039"><clipPath
       clipPathUnits="userSpaceOnUse"
       id="clipPath1049"><path
         d="M 0,512 H 512 V 0 H 0 Z"
         id="path1047" /></clipPath></defs><g
     id="g1041"
     transform="matrix(1.3333333,0,0,-1.3333333,0,682.66667)"><g
       id="g1043"><g
         id="g1045"
         clip-path="url(#clipPath1049)"><g
           id="g1051"
           transform="translate(178.0288,216)"><path
             d="m 0,0 h -60.029 c -54.124,0 -98,-43.876 -98,-98 v 0 c 0,-54.124 43.876,-98 98,-98 h 276 c 54.124,0 98,43.876 98,98 v 0 c 0,54.124 -43.876,98 -98,98 h -68.034"
             style="fill:none;stroke:#000000;stroke-width:40;stroke-linecap:round;stroke-linejoin:round;stroke-miterlimit:10;stroke-dasharray:none;stroke-opacity:1"
             id="path1053" /></g><g
           id="g1055"
           transform="translate(391,143)"><path
             d="m 0,0 c -13.807,0 -25,-11.193 -25,-25 0,-13.807 11.193,-25 25,-25 13.807,0 25,11.193 25,25 C 25,-11.193 13.807,0 0,0 m -90,0 c -13.807,0 -25,-11.193 -25,-25 0,-13.807 11.193,-25 25,-25 13.807,0 25,11.193 25,25 0,13.807 -11.193,25 -25,25 m -180,0 c -13.807,0 -25,-11.193 -25,-25 0,-13.807 11.193,-25 25,-25 13.807,0 25,11.193 25,25 0,13.807 -11.193,25 -25,25 m 115,-25 c 0,-13.807 -11.193,-25 -25,-25 -13.807,0 -25,11.193 -25,25 0,13.807 11.193,25 25,25 13.807,0 25,-11.193 25,-25"
             style="fill:#000000;fill-opacity:1;fill-rule:nonzero;stroke:none"
             id="path1057" /></g><g
           id="g1059"
           transform="translate(277,257.0006)"><path
             d="m 0,0 c 0,-13.807 -11.193,-25 -25,-25 -13.807,0 -25,11.193 -25,25 0,13.807 11.193,25 25,25 C -11.193,25 0,13.807 0,0"
             style="fill:#000000;fill-opacity:1;fill-rule:nonzero;stroke:none"
             id="path1061" /></g><g
           id="g1063"
           transform="translate(252.0402,332.0006)"><path
             d="m 0,0 v 0.99 c 0,27.437 13.973,53.297 37.545,67.399 15.361,9.19 24.415,24.14 24.415,41.02 C 61.96,137.35 39.505,160 11.522,160 -10.04,160 -34.04,149 -54.04,126"
             style="fill:none;stroke:#000000;stroke-width:40;stroke-linecap:round;stroke-linejoin:round;stroke-miterlimit:10;stroke-dasharray:none;stroke-opacity:1"
             id="path1065" /></g></g></g></g></svg>
