<?xml version="1.0" encoding="UTF-8" standalone="no"?>
<!-- Created with Inkscape (http://www.inkscape.org/) -->

<svg
   version="1.1"
   id="svg1977"
   xml:space="preserve"
   width="682.66669"
   height="682.66669"
   viewBox="0 0 682.66669 682.66669"
   xmlns="http://www.w3.org/2000/svg"
   xmlns:svg="http://www.w3.org/2000/svg"><defs
     id="defs1981"><clipPath
       clipPathUnits="userSpaceOnUse"
       id="clipPath1991"><path
         d="M 0,512 H 512 V 0 H 0 Z"
         id="path1989" /></clipPath></defs><g
     id="g1983"
     transform="matrix(1.3333333,0,0,-1.3333333,0,682.66667)"><g
       id="g1985"><g
         id="g1987"
         clip-path="url(#clipPath1991)"><g
           id="g1993"
           transform="translate(162,20.0006)"><path
             d="m 0,0 h 188 c 55.228,0 100,44.772 100,100 v 102 c 0,55.228 -44.772,100 -100,100 H 0 c -55.228,0 -100,-44.772 -100,-100 V 100 C -100,44.772 -55.228,0 0,0 Z"
             style="fill:none;stroke:#000000;stroke-width:40;stroke-linecap:round;stroke-linejoin:round;stroke-miterlimit:10;stroke-dasharray:none;stroke-opacity:1"
             id="path1995" /></g><g
           id="g1997"
           transform="translate(338.976,322.9875)"><path
             d="m 0,0 v 86.568 c 0,45.533 -36.912,82.445 -82.445,82.445 -45.534,0 -82.446,-36.912 -82.446,-82.445 V 0"
             style="fill:none;stroke:#000000;stroke-width:40;stroke-linecap:round;stroke-linejoin:round;stroke-miterlimit:10;stroke-dasharray:none;stroke-opacity:1"
             id="path1999" /></g><g
           id="g2001"
           transform="translate(256,145)"><path
             d="M 0,0 V -40"
             style="fill:none;stroke:#000000;stroke-width:40;stroke-linecap:round;stroke-linejoin:round;stroke-miterlimit:10;stroke-dasharray:none;stroke-opacity:1"
             id="path2003" /></g><g
           id="g2005"
           transform="translate(216,191)"><path
             d="M 0,0 C 0,-22.091 17.909,-40 40,-40 62.091,-40 80,-22.091 80,0 80,22.091 62.091,40 40,40 17.909,40 0,22.091 0,0 Z"
             style="fill:none;stroke:#000000;stroke-width:40;stroke-linecap:round;stroke-linejoin:round;stroke-miterlimit:10;stroke-dasharray:none;stroke-opacity:1"
             id="path2007" /></g></g></g></g></svg>
