<?xml version="1.0" encoding="UTF-8" standalone="no"?>
<!-- Created with Inkscape (http://www.inkscape.org/) -->

<svg
   version="1.1"
   id="svg963"
   xml:space="preserve"
   width="682.66669"
   height="682.66669"
   viewBox="0 0 682.66669 682.66669"
   xmlns="http://www.w3.org/2000/svg"
   xmlns:svg="http://www.w3.org/2000/svg"><defs
     id="defs967"><clipPath
       clipPathUnits="userSpaceOnUse"
       id="clipPath977"><path
         d="M 0,512 H 512 V 0 H 0 Z"
         id="path975" /></clipPath></defs><g
     id="g969"
     transform="matrix(1.3333333,0,0,-1.3333333,0,682.66667)"><g
       id="g971"><g
         id="g973"
         clip-path="url(#clipPath977)"><g
           id="g979"
           transform="translate(20,256)"><path
             d="M 0,0 C 0,-130.339 105.661,-236 236,-236 366.339,-236 472,-130.339 472,0 472,130.339 366.339,236 236,236 105.661,236 0,130.339 0,0 Z"
             style="fill:none;stroke:#000000;stroke-width:40;stroke-linecap:round;stroke-linejoin:round;stroke-miterlimit:10;stroke-dasharray:none;stroke-opacity:1"
             id="path981" /></g><g
           id="g983"
           transform="translate(331,333)"><path
             d="m 0,0 c 0,-41.974 -34.026,-76 -76,-76 -41.974,0 -76,34.026 -76,76 0,41.974 34.026,76 76,76 C -34.026,76 0,41.974 0,0 Z"
             style="fill:none;stroke:#000000;stroke-width:40;stroke-linecap:round;stroke-linejoin:round;stroke-miterlimit:10;stroke-dasharray:none;stroke-opacity:1"
             id="path985" /></g><g
           id="g987"
           transform="translate(369.0391,136)"><path
             d="m 0,0 c -23.499,28.689 -59.197,47 -99.174,47 h -23.73 c -39.977,0 -75.675,-18.311 -99.174,-47"
             style="fill:none;stroke:#000000;stroke-width:40;stroke-linecap:round;stroke-linejoin:round;stroke-miterlimit:10;stroke-dasharray:none;stroke-opacity:1"
             id="path989" /></g></g></g></g></svg>
